<svg height="1237.5pt" viewBox="0 0 1237.5 1237.5" width="1237.5pt" xmlns="http://www.w3.org/2000/svg"><g fill="#32CD32"><path d="m928.125 309.375c0-11.390625-9.234375-20.625-20.625-20.625h-123.75c-11.390625 0-20.625 9.234375-20.625 20.625v309.375h-41.25v-226.875c0-11.390625-9.234375-20.625-20.625-20.625h-123.75c-11.390625 0-20.625 9.234375-20.625 20.625v226.875h-41.25v-144.375c0-11.390625-9.234375-20.625-20.625-20.625h-123.75c-11.386719 0-20.625 9.234375-20.625 20.625v144.375h-41.246094v-61.875c0-11.390625-9.238281-20.625-20.625-20.625h-123.75c-11.390625 0-20.625 9.234375-20.625 20.625v61.875h-41.253906v-536.25h-41.25v556.875c0 11.390625 9.234375 20.625 20.625 20.625h886.875v-41.25h-41.25zm-742.5 309.375v-41.25h82.5v41.25zm206.25 0v-123.75h82.5v123.75zm206.25 0v-206.25h82.5v206.25zm206.25 0v-288.75h82.5v288.75zm0 0"/><path d="m1175.625 0h-1113.75c-34.175781 0-61.875 27.699219-61.875 61.875v742.5c0 34.175781 27.699219 61.875 61.875 61.875h350.625c56.929688.070312 103.054688 46.203125 103.125 103.125-.101562 56.914062-46.210938 103.023438-103.125 103.125-.269531 0-.492188.148438-.78125.164062-1.519531.117188-3.011719.417969-4.457031.890626-1.128907.214843-2.242188.527343-3.320313.929687-1.222656.640625-2.371094 1.414063-3.425781 2.308594-1.054687.652343-2.039063 1.414062-2.945313 2.265625-.777343.972656-1.472656 2.003906-2.066406 3.09375-.824218 1.167968-1.519531 2.425781-2.0625 3.753906-.101562.246094-.3125.429688-.414062.699219l-41.246094 123.75c-3.601562 10.808593 2.242188 22.488281 13.046875 26.089843 2.070313.6875 4.238281 1.046876 6.421875 1.054688h495c11.390625.003906 20.625-9.226562 20.628906-20.621094 0-2.214844-.355468-4.417968-1.058594-6.523437l-41.246093-123.75c0-.269531-.3125-.453125-.414063-.699219-.542968-1.328125-1.234375-2.585938-2.058594-3.753906-.597656-1.089844-1.289062-2.121094-2.066406-3.09375-.925781-.859375-1.925781-1.632813-2.988281-2.308594-1.046875-.859375-2.167969-1.613281-3.367187-2.25-1.097657-.40625-2.230469-.726562-3.382813-.945312-1.433594-.472657-2.921875-.773438-4.433594-.890626-.269531 0-.492187-.164062-.761719-.164062-56.914062-.101562-103.023437-46.210938-103.125-103.125.070313-56.921875 46.195313-103.054688 103.125-103.125h350.523438c34.175781 0 61.875-27.699219 61.875-61.875v-742.5c0-34.175781-27.699219-61.875-61.875-61.875zm-495 969.375c.078125 73.84375 55.8125 135.75 129.238281 143.570312l27.777344 83.304688h-437.78125l27.777344-83.304688c73.433593-7.820312 129.160156-69.726562 129.238281-143.570312.003906-38.835938-15.6875-76.03125-43.519531-103.125h210.789062c-27.832031 27.09375-43.523437 64.289062-43.519531 103.125zm515.625-165c0 11.390625-9.234375 20.625-20.625 20.625h-1113.75c-11.390625 0-20.625-9.234375-20.625-20.625v-61.875h1155zm-1155-103.125v-639.375c0-11.390625 9.234375-20.625 20.625-20.625h1113.75c11.390625 0 20.625 9.234375 20.625 20.625v639.375zm0 0"/><path d="m1010.625 82.5h41.25v41.25h-41.25zm0 0"/><path d="m1072.5 82.5h103.125v41.25h-103.125zm0 0"/><path d="m1010.625 144.375h41.25v41.25h-41.25zm0 0"/><path d="m1072.5 144.375h103.125v41.25h-103.125zm0 0"/><path d="m1010.625 206.25h41.25v41.25h-41.25zm0 0"/><path d="m1072.5 206.25h103.125v41.25h-103.125zm0 0"/><path d="m1010.625 268.125h41.25v41.25h-41.25zm0 0"/><path d="m1072.5 268.125h103.125v41.25h-103.125zm0 0"/></g></svg>