<?xml version="1.0" standalone="no"?>
<!DOCTYPE svg PUBLIC "-//W3C//DTD SVG 20010904//EN"
 "http://www.w3.org/TR/2001/REC-SVG-20010904/DTD/svg10.dtd">
<svg version="1.0" xmlns="http://www.w3.org/2000/svg"
 width="928.000000pt" height="1280.000000pt" viewBox="0 0 928.000000 1280.000000"
 preserveAspectRatio="xMidYMid meet">
<metadata>
Created by potrace 1.15, written by Peter Selinger 2001-2017
</metadata>
<g transform="translate(0.000000,1280.000000) scale(0.100000,-0.100000)"
fill="#00BFFF" stroke="none">
<path d="M2745 12785 c-54 -19 -65 -38 -65 -110 l0 -62 158 -6 c86 -4 402 -7
702 -7 630 0 590 -6 590 89 0 83 -10 92 -111 102 -46 4 -343 8 -659 8 -472 0
-582 -2 -615 -14z"/>
<path d="M2776 12168 c-3 -200 -8 -838 -11 -1418 -3 -580 -8 -1170 -11 -1311
l-6 -256 -67 -30 c-63 -29 -291 -181 -339 -227 l-23 -23 -6 -936 c-5 -682 -9
-937 -17 -937 -19 0 -392 144 -556 215 -159 68 -354 145 -369 145 -4 0 -23
-39 -41 -87 -18 -49 -71 -170 -117 -271 -47 -100 -83 -192 -81 -204 2 -12 23
-37 48 -56 67 -51 76 -73 57 -141 -9 -31 -95 -240 -191 -465 -167 -386 -205
-481 -220 -552 -6 -29 -5 -30 41 -42 47 -13 511 -211 607 -259 l49 -25 42 46
c28 31 50 46 66 46 14 0 81 -16 149 -35 68 -19 125 -35 126 -35 1 0 23 53 49
118 26 64 69 167 95 227 27 61 61 152 76 203 15 50 33 92 39 92 16 0 387 -151
489 -199 l83 -38 6 -264 c4 -145 7 -335 7 -422 0 -117 3 -159 13 -161 19 -6
1219 -27 1224 -22 3 3 11 201 17 440 7 240 15 438 18 441 3 3 30 8 59 12 30 3
63 13 73 22 49 42 68 142 82 434 l6 138 637 -6 c350 -3 769 -10 931 -15 333
-11 362 -16 560 -95 272 -109 328 -145 538 -349 183 -178 246 -279 328 -526
55 -165 76 -305 78 -515 1 -160 -2 -189 -22 -260 -94 -330 -232 -527 -491
-704 -113 -77 -270 -144 -456 -195 -20 -6 -22 2 -42 150 -13 97 -26 160 -34
167 -11 9 -438 10 -1779 5 -1721 -7 -4342 -2 -4407 8 l-33 5 0 -176 0 -175
118 -1 c64 -1 433 -4 819 -8 446 -4 706 -10 712 -16 5 -6 13 -161 19 -368 5
-196 11 -359 13 -361 2 -3 555 -10 1229 -17 674 -6 1226 -13 1228 -14 1 -1 8
-221 15 -489 l12 -486 -23 0 c-21 0 -640 308 -848 422 -78 43 -83 44 -110 30
-90 -46 -351 -199 -489 -287 -88 -56 -248 -154 -355 -218 l-195 -117 -401 0
c-220 0 -503 -3 -627 -7 l-227 -6 0 -207 0 -207 -342 -7 c-189 -3 -400 -9
-471 -12 l-127 -7 0 -633 0 -634 4600 0 4600 0 0 635 0 635 -177 1 c-1047 8
-1573 15 -1579 22 -5 4 -10 167 -12 361 l-4 354 28 6 c16 3 101 17 189 31 250
41 405 85 613 173 171 73 504 344 656 534 112 140 243 420 301 645 56 216 80
605 51 818 -45 317 -146 617 -312 920 -96 175 -298 476 -446 663 -71 89 -167
215 -213 280 -46 64 -138 191 -204 282 -66 91 -146 201 -178 245 -31 44 -95
130 -142 191 -47 61 -131 174 -186 250 -55 76 -154 211 -220 299 -66 88 -172
232 -235 319 -63 87 -152 204 -196 261 -45 56 -116 153 -158 216 -41 63 -132
186 -202 274 -70 88 -155 198 -188 245 -33 47 -82 113 -109 147 l-49 61 -142
6 c-77 3 -300 10 -494 16 -194 5 -357 12 -362 15 -6 4 -10 55 -10 115 0 60 -4
111 -9 115 -6 3 -175 6 -377 6 l-367 -1 -34 38 c-19 20 -59 78 -90 127 -30 50
-99 153 -153 230 -54 77 -112 163 -129 191 l-31 51 -7 1377 -6 1376 -617 0
-618 0 -6 -362z m1247 -3478 c120 -41 219 -94 261 -140 18 -20 51 -68 72 -106
l39 -69 3 -194 4 -194 -67 -98 c-74 -109 -153 -186 -233 -226 l-53 -26 -207 7
c-241 8 -224 1 -363 139 -63 63 -90 99 -118 157 -36 74 -36 76 -36 205 0 159
21 235 94 348 51 78 107 124 218 181 70 35 111 44 212 45 68 1 100 -5 174 -29z"/>
<path d="M3787 8540 c-79 -20 -152 -63 -214 -127 -50 -52 -63 -72 -72 -114
-26 -119 -3 -259 59 -366 23 -40 47 -73 54 -73 7 0 26 -6 42 -14 16 -8 83 -19
149 -24 268 -21 352 23 412 216 23 74 25 95 20 177 -5 90 -7 97 -50 164 -43
66 -50 72 -140 116 -102 51 -181 64 -260 45z m153 -290 c28 -19 35 -45 26
-104 -11 -68 -12 -69 -103 -56 -44 7 -85 15 -92 19 -17 11 5 124 28 145 33 29
97 27 141 -4z"/>
<path d="M2803 4757 c-13 -22 16 -46 105 -84 189 -83 262 -100 459 -109 160
-7 214 2 378 67 95 37 220 107 210 117 -8 8 -1147 17 -1152 9z"/>
<path d="M697 4172 l-648 -2 3 -22 c2 -19 12 -24 53 -30 151 -21 967 -28 3488
-28 l2716 0 7 35 c3 20 3 39 -1 43 -6 7 -4224 10 -5618 4z"/>
</g>
</svg>
