<?xml version="1.0" encoding="utf-8"?>
<!-- Svg Vector Icons : http://www.onlinewebfonts.com/icon -->
<!DOCTYPE svg PUBLIC "-//W3C//DTD SVG 1.1//EN" "http://www.w3.org/Graphics/SVG/1.1/DTD/svg11.dtd">
<svg version="1.1" xmlns="http://www.w3.org/2000/svg" xmlns:xlink="http://www.w3.org/1999/xlink" x="0px" y="0px" viewBox="0 0 1000 1000" enable-background="new 0 0 1000 1000" xml:space="preserve">
<metadata> Svg Vector Icons : http://www.onlinewebfonts.com/icon </metadata>
<g><g transform="translate(0.000000,511.000000) scale(0.100000,-0.100000)"><path style="fill: #00bbe3;" d="M221.1,2531.2c-128.7-78.8-121.1,84.5-121.1-2425c0-2246.3,0-2273.2,38.4-2336.6c78.8-128.8-299.8-119.1,4861.5-119.1s4782.7-9.6,4861.5,119.1c38.4,63.4,38.4,90.3,38.4,2336.6c0,2509.5,7.7,2346.2-121.1,2425c-61.5,38.4-134.5,38.4-4778.9,38.4C355.6,2569.6,282.6,2569.6,221.1,2531.2z M8510.6,1977.8c30.7-186.4,88.4-326.7,194.1-455.4c159.5-199.8,382.4-324.7,620.6-349.7l113.4-11.5V110.1V-941l-113.4-11.5c-238.3-25-461.2-149.9-620.6-349.7c-101.9-126.8-163.3-265.2-192.2-445.8l-21.1-121.1H4998.1H1506.7l-13.5,99.9c-42.3,303.6-222.9,568.8-484.2,712.9c-107.6,57.6-290.1,109.5-384.3,109.5h-63.4v1053v1051.1l149.9,25c415.1,65.3,730.2,393.9,782.1,814.7l13.5,107.6h3491.4h3493.4L8510.6,1977.8z"/><path style="fill: #00bbe3;" d="M4798.2,1816.4c-51.9-9.6-169.1-51.9-259.4-96.1c-303.6-146-578.4-478.5-716.7-868.5c-98-280.5-117.2-397.8-115.3-751.3c0-344,28.8-507.3,138.3-797.4c155.6-409.3,491.9-749.4,866.6-876.2c155.6-51.9,432.3-48,595.7,7.7c453.5,155.7,776.3,551.5,937.7,1154.9c44.2,165.2,48,221,48,520.7c0,299.8-3.8,355.5-48,520.7c-105.7,390.1-263.3,672.5-499.6,891.6C5470.8,1776.1,5136.4,1879.8,4798.2,1816.4z M5157.6,1270.7l5.8-146L5269,1092c184.5-57.6,303.6-144.1,388.1-280.5c61.5-101.8,50-119.1-124.9-172.9c-194.1-59.6-203.7-59.6-257.5-1.9c-46.1,48-172.9,88.4-274.8,88.4c-261.3,0-413.1-184.5-272.9-326.7c57.6-57.6,73-61.5,363.2-92.2c403.5-46.1,639.9-265.2,639.9-597.6c0-284.4-144.1-472.7-440-572.6l-126.8-42.3l-5.8-144.1l-5.8-146H5000c-148,0-153.7,1.9-165.3,50c-7.7,26.9-7.7,76.9-1.9,113.4c13.5,80.7-1.9,144.1-36.5,144.1c-55.7,0-238.3,80.7-309.4,136.4c-84.5,67.3-178.7,199.8-178.7,249.8c0,26.9,36.5,46.1,159.5,84.6c194.1,59.6,203.7,59.6,257.5,1.9c46.1-48,172.9-88.4,274.8-88.4c261.3,0,413.1,184.5,272.9,326.7c-59.6,57.6-76.9,61.5-368.9,94.2c-420.8,46.1-653.3,284.4-630.3,643.7c17.3,272.9,188.3,465,476.5,540l86.5,21.1l5.8,148l5.8,148H5000h151.8L5157.6,1270.7z"/><path style="fill: #00bbe3;" d="M2111.9,640.4c-176.8-65.3-315.1-213.3-361.3-384.3c-28.8-107.6-11.5-294,38.4-392c51.9-101.8,151.8-201.8,257.5-257.5c115.3-61.5,372.8-63.4,486.2-1.9c121.1,65.3,186.4,126.8,247.9,240.2c51.9,90.3,57.6,121.1,57.6,265.2s-5.8,174.9-57.6,265.2c-99.9,182.5-249.8,274.8-461.2,286.3C2234.9,665.4,2158,657.7,2111.9,640.4z"/><path style="fill: #00bbe3;" d="M7530.7,640.4c-180.6-67.3-315.1-211.4-361.2-386.2c-50-184.5,25-443.9,161.4-559.2c123-103.8,203.7-132.6,378.6-132.6c132.6,0,178.7,7.7,245.9,44.2c340.1,180.6,415.1,630.3,148,897.4c-38.4,36.5-105.7,86.5-149.9,109.5C7851.6,665.4,7634.4,678.9,7530.7,640.4z"/></g></g>
</svg>