<?xml version="1.0" standalone="no"?>
<!DOCTYPE svg PUBLIC "-//W3C//DTD SVG 20010904//EN"
 "http://www.w3.org/TR/2001/REC-SVG-20010904/DTD/svg10.dtd">
<svg version="1.0" xmlns="http://www.w3.org/2000/svg"
 width="1280.000000pt" height="442.000000pt" viewBox="0 0 1280.000000 442.000000"
 preserveAspectRatio="xMidYMid meet">
<metadata>
Created by potrace 1.15, written by Peter Selinger 2001-2017
</metadata>
<g transform="translate(0.000000,442.000000) scale(0.100000,-0.100000)"
fill="#ffffff" stroke="none">
<path d="M3160 4289 c-513 -59 -1124 -332 -1638 -734 l-101 -79 19 -31 c11
-16 25 -29 31 -27 6 1 43 24 82 51 254 170 594 340 867 433 283 96 571 132
755 93 145 -31 277 -121 338 -233 81 -149 47 -373 -103 -677 -72 -147 -149
-272 -257 -417 -36 -49 -66 -88 -67 -88 0 0 -1 51 -1 113 0 103 -2 116 -28
167 -50 98 -120 154 -239 194 -547 184 -1693 -406 -2298 -1183 -190 -244 -315
-498 -371 -752 -30 -134 -33 -356 -6 -464 111 -445 585 -643 1180 -493 593
149 1277 641 1895 1362 434 505 784 1104 917 1566 71 246 84 499 35 670 -68
238 -235 412 -470 490 -138 45 -351 60 -540 39z m-415 -1503 c132 -57 171
-186 108 -368 -55 -159 -167 -306 -379 -500 -299 -272 -581 -457 -825 -539
-107 -36 -253 -50 -326 -30 -67 18 -133 70 -167 131 -28 50 -31 63 -30 140 0
104 32 194 115 321 258 395 764 758 1189 854 86 19 260 14 315 -9z"/>
<path d="M5047 3081 c-37 -136 -67 -253 -67 -259 0 -8 126 -12 428 -14 389 -3
430 -5 460 -21 75 -41 90 -122 50 -273 l-22 -84 -266 0 c-305 0 -401 -11 -563
-64 -400 -131 -697 -418 -772 -746 -19 -84 -19 -249 0 -325 25 -100 83 -203
155 -276 51 -52 85 -76 160 -112 176 -84 147 -81 827 -85 l601 -3 15 53 c15
52 381 1416 439 1638 40 152 44 308 11 415 -58 184 -215 327 -423 384 -70 20
-100 21 -521 21 l-446 0 -66 -249z m672 -1308 c-21 -82 -56 -211 -77 -288
l-37 -140 -271 -3 -271 -2 -54 27 c-45 23 -59 38 -82 83 -25 47 -28 63 -24
113 13 156 160 305 337 343 33 8 148 13 287 13 l231 1 -39 -147z"/>
<path d="M7393 3319 c-91 -15 -235 -67 -323 -116 -120 -68 -260 -208 -317
-318 -161 -312 -141 -574 60 -777 87 -87 174 -148 362 -253 176 -98 218 -126
278 -184 61 -59 73 -98 51 -172 -21 -71 -72 -122 -144 -143 -46 -14 -118 -16
-484 -16 l-431 0 -63 -238 c-35 -130 -66 -247 -69 -260 l-6 -23 529 3 c510 4
532 5 609 26 272 75 452 236 562 502 130 313 100 569 -90 754 -86 85 -162 136
-362 246 -239 132 -313 189 -336 257 -21 65 53 165 140 192 26 7 165 11 430
11 215 0 391 2 391 6 0 3 29 114 65 248 36 133 65 248 65 254 0 14 -833 15
-917 1z"/>
<path d="M8691 3293 c-166 -638 -641 -2466 -641 -2469 0 -2 127 -3 281 -2
l282 3 319 1225 c175 674 321 1237 325 1253 l6 27 -281 0 -281 0 -10 -37z"/>
<path d="M10525 3323 c-434 -53 -758 -208 -1029 -494 -215 -226 -379 -546
-442 -864 -24 -120 -25 -368 -1 -474 71 -309 275 -532 572 -624 135 -42 208
-48 524 -45 l294 3 63 235 c35 129 66 245 69 258 l5 22 -278 0 c-227 0 -288 3
-333 16 -183 55 -307 180 -350 354 -20 85 -15 229 14 341 83 322 322 581 644
699 132 48 223 60 443 60 l198 0 11 33 c5 17 35 127 66 242 31 116 58 218 61
228 5 16 -11 17 -248 16 -139 -1 -266 -4 -283 -6z"/>
<path d="M11743 3315 c-210 -38 -431 -164 -548 -312 -100 -128 -173 -314 -182
-468 -11 -174 39 -298 171 -431 88 -88 171 -145 396 -273 249 -141 295 -184
295 -281 0 -78 -40 -143 -110 -179 l-50 -26 -452 -3 -452 -3 -15 -52 c-8 -29
-38 -140 -66 -247 -28 -107 -53 -201 -55 -208 -4 -11 93 -12 523 -9 603 4 609
4 792 94 81 40 109 61 190 142 80 80 104 112 147 196 77 151 114 276 120 410
14 297 -110 457 -541 694 -291 160 -346 214 -318 310 7 20 26 51 44 70 66 68
51 65 502 71 l410 5 61 230 c34 127 65 242 69 258 l6 27 -432 -1 c-308 -1
-454 -5 -505 -14z"/>
</g>
</svg>
