<?xml version="1.0" standalone="no"?>
<!DOCTYPE svg PUBLIC "-//W3C//DTD SVG 20010904//EN"
 "http://www.w3.org/TR/2001/REC-SVG-20010904/DTD/svg10.dtd">
<svg version="1.0" xmlns="http://www.w3.org/2000/svg"
 width="1280.000000pt" height="704.000000pt" viewBox="0 0 1280.000000 704.000000"
 preserveAspectRatio="xMidYMid meet">
<metadata>
Created by potrace 1.15, written by Peter Selinger 2001-2017
</metadata>
<g transform="translate(0.000000,704.000000) scale(0.100000,-0.100000)"
fill="#ffffff" stroke="none">
<path d="M4416 6978 c-63 -101 -196 -342 -191 -347 10 -10 2095 -137 2095
-127 0 10 -106 415 -121 464 l-11 32 -879 0 -879 0 -14 -22z"/>
<path d="M7517 6943 c-145 -249 -289 -505 -285 -508 3 -3 308 -26 679 -52 371
-25 678 -50 683 -54 8 -7 -29 -79 -42 -79 -298 -15 -1485 -99 -1491 -106 -5
-5 -106 -178 -225 -384 l-216 -375 27 -7 c16 -4 325 -26 688 -49 363 -22 661
-43 663 -44 2 -2 -7 -21 -19 -43 l-23 -39 -110 -7 c-60 -4 -313 -20 -560 -36
-427 -28 -916 -60 -3086 -200 -509 -33 -938 -61 -954 -62 -27 -3 -39 -18 -133
-182 -57 -98 -103 -182 -103 -186 0 -10 17 -12 1270 -90 613 -39 1471 -93
1905 -120 435 -27 871 -55 970 -60 99 -6 195 -13 213 -16 l33 -5 -22 -38 -21
-39 -82 -6 c-44 -4 -313 -20 -596 -36 -1837 -106 -1704 -97 -3050 -200 -212
-16 -520 -39 -685 -51 -165 -12 -309 -26 -321 -30 -20 -7 -230 -357 -219 -367
4 -4 2000 -121 2087 -122 24 0 38 21 163 238 76 130 163 279 193 331 l55 94
93 -347 c51 -191 94 -349 96 -351 3 -3 1661 -105 1700 -105 14 0 13 -6 -9 -45
-19 -34 -31 -45 -49 -45 -22 0 -531 -35 -1292 -90 -145 -10 -265 -20 -267 -22
-4 -3 100 -427 131 -536 l15 -52 1589 0 c1702 0 1666 -1 1916 50 247 51 526
149 759 268 607 311 975 802 978 1302 0 225 -79 396 -248 533 -70 56 -218 132
-292 149 l-52 12 117 42 c317 111 557 254 765 454 256 245 396 487 452 781 18
97 21 301 6 371 -78 346 -364 543 -876 603 -110 13 -341 15 -1507 15 l-1377 0
-34 -57z m2082 -859 c106 -31 181 -146 181 -278 0 -256 -241 -493 -560 -549
-94 -17 -604 -32 -598 -19 2 5 113 201 248 435 l245 426 216 1 c167 0 227 -3
268 -16z m-882 -1762 c111 -59 168 -150 167 -267 -1 -250 -217 -475 -549 -572
-87 -26 -99 -27 -418 -31 l-328 -3 14 23 c8 13 101 174 207 358 106 184 217
377 247 428 l55 93 281 -3 c270 -3 284 -4 324 -26z"/>
<path d="M6115 6095 c-104 -8 -662 -43 -1240 -80 -577 -36 -1051 -67 -1052
-69 -8 -8 -213 -369 -211 -371 2 -1 118 -10 258 -19 250 -16 593 -38 2018
-132 392 -26 715 -44 719 -41 3 4 -37 167 -89 364 l-94 358 -59 1 c-33 1 -145
-4 -250 -11z"/>
<path d="M3135 2869 c-599 -43 -1099 -78 -1110 -78 -16 -1 -45 -44 -128 -187
-59 -103 -106 -188 -105 -189 2 -2 496 0 1098 3 l1095 5 145 249 c80 137 146
256 148 264 4 18 141 25 -1143 -67z"/>
<path d="M4560 860 l0 -800 135 0 135 0 0 70 0 71 37 -37 c94 -94 202 -134
362 -134 182 0 283 41 401 159 109 110 166 229 189 395 44 313 -154 625 -445
701 -147 38 -331 9 -453 -73 l-61 -40 0 244 0 244 -150 0 -150 0 0 -800z m765
141 c68 -30 138 -101 172 -175 25 -54 28 -72 28 -161 -1 -130 -25 -194 -100
-270 -72 -72 -142 -98 -245 -93 -197 9 -340 168 -340 377 0 61 36 161 78 216
37 49 119 107 177 125 51 16 174 6 230 -19z"/>
<path d="M7300 860 l0 -800 145 0 145 0 0 800 0 800 -145 0 -145 0 0 -800z"/>
<path d="M1642 1290 c-232 -62 -399 -237 -458 -480 -18 -75 -18 -232 1 -305
60 -229 231 -403 451 -459 78 -20 241 -21 314 -1 30 8 89 31 130 51 122 61
259 215 295 331 l6 23 -151 0 -150 0 -58 -58 c-73 -75 -130 -97 -241 -90 -92
6 -158 34 -218 94 -35 35 -83 110 -83 129 0 3 207 5 460 5 l459 0 8 38 c4 20
7 78 7 127 -4 262 -179 502 -424 585 -94 32 -251 37 -348 10z m290 -283 c66
-30 124 -87 154 -152 44 -92 67 -85 -297 -85 l-320 0 7 23 c60 194 278 297
456 214z"/>
<path d="M12002 1295 c-145 -32 -300 -141 -380 -268 -172 -274 -142 -598 78
-817 126 -126 260 -180 448 -180 150 0 250 35 380 133 78 59 191 221 192 275
0 9 -37 12 -152 11 l-153 0 -30 -41 c-16 -23 -54 -55 -84 -71 -45 -26 -68 -31
-135 -35 -98 -5 -169 18 -236 75 -44 38 -100 116 -100 140 0 10 88 13 459 13
l458 0 7 38 c12 73 6 189 -14 266 -59 232 -243 414 -465 461 -86 18 -189 18
-273 0z m282 -290 c81 -38 141 -112 171 -212 l6 -23 -321 0 -322 0 7 28 c7 30
44 95 72 127 94 108 257 141 387 80z"/>
<path d="M505 1286 c-57 -18 -104 -43 -152 -83 l-43 -34 0 45 0 46 -135 0
-135 0 0 -600 0 -600 145 0 145 0 0 333 c0 349 8 444 39 505 55 107 185 160
289 117 47 -20 79 -50 104 -99 41 -80 48 -152 48 -513 l0 -343 145 0 145 0 0
403 c0 434 -5 486 -54 593 -47 102 -156 190 -285 228 -65 19 -199 20 -256 2z"/>
<path d="M6343 1286 c-113 -28 -236 -108 -314 -203 -45 -56 -95 -157 -116
-235 -24 -85 -23 -278 0 -368 57 -215 217 -384 412 -435 76 -19 214 -19 289 0
73 19 180 75 235 122 l41 35 0 -71 0 -71 135 0 135 0 0 600 0 600 -135 0 -135
0 0 -72 0 -72 -42 41 c-103 99 -216 144 -362 142 -50 0 -115 -6 -143 -13z
m339 -290 c272 -129 252 -570 -30 -676 -46 -18 -72 -21 -137 -18 -99 6 -160
34 -228 107 -75 80 -92 126 -92 251 0 93 3 112 26 161 46 97 120 165 212 195
67 22 181 13 249 -20z"/>
<path d="M8118 1285 c-272 -75 -448 -317 -448 -615 0 -305 169 -548 435 -625
45 -13 84 -16 169 -13 97 4 121 9 189 37 43 18 105 53 137 77 l60 44 0 -65 0
-66 138 3 137 3 3 598 2 597 -140 0 -140 0 0 -67 0 -67 -37 36 c-55 52 -129
96 -202 118 -74 23 -228 26 -303 5z m333 -284 c74 -35 125 -85 161 -159 31
-63 33 -72 33 -177 0 -105 -2 -114 -33 -177 -40 -81 -102 -139 -181 -169 -79
-30 -194 -24 -269 15 -217 111 -262 405 -91 591 71 77 146 107 259 101 51 -2
90 -10 121 -25z"/>
<path d="M9545 1286 c-59 -19 -120 -52 -160 -87 l-35 -31 0 46 0 46 -135 0
-135 0 0 -600 0 -600 144 0 145 0 3 377 c5 424 8 449 73 516 48 49 87 68 155
74 107 10 187 -51 227 -171 14 -43 17 -111 21 -423 l4 -373 144 0 144 0 0 394
c0 428 -6 497 -54 598 -52 109 -149 189 -274 228 -74 23 -204 26 -267 6z"/>
<path d="M10720 1285 c-304 -85 -494 -345 -477 -655 3 -54 14 -123 26 -160 58
-185 205 -335 399 -408 91 -34 275 -42 372 -17 114 29 188 72 276 160 63 62
90 99 123 165 l42 85 -166 3 -167 2 -21 -27 c-40 -52 -82 -86 -136 -111 -72
-33 -180 -28 -259 12 -258 131 -260 537 -4 663 50 24 69 28 147 28 73 0 98 -4
130 -22 46 -25 98 -73 122 -115 l17 -28 168 0 c92 0 168 3 168 7 0 3 -18 43
-39 87 -71 147 -190 253 -346 310 -68 25 -98 29 -200 32 -86 3 -136 0 -175
-11z"/>
<path d="M2359 1213 c10 -27 107 -297 217 -600 l198 -553 92 0 91 0 81 278
c44 152 94 321 109 374 15 54 30 98 33 98 4 0 151 -498 212 -718 l9 -32 92 0
92 0 214 588 c118 323 216 593 219 600 3 10 -29 12 -154 10 l-159 -3 -104
-347 c-58 -191 -107 -345 -110 -342 -3 3 -47 159 -97 347 l-91 342 -120 3
-120 3 -93 -351 c-52 -192 -97 -347 -101 -343 -3 5 -41 125 -84 268 -42 143
-88 297 -101 343 l-25 82 -159 0 -160 0 19 -47z"/>
</g>
</svg>
