<?xml version="1.0" standalone="no"?>
<!DOCTYPE svg PUBLIC "-//W3C//DTD SVG 20010904//EN"
 "http://www.w3.org/TR/2001/REC-SVG-20010904/DTD/svg10.dtd">
<svg version="1.0" xmlns="http://www.w3.org/2000/svg"
 width="1280.000000pt" height="681.000000pt" viewBox="0 0 1280.000000 681.000000"
 preserveAspectRatio="xMidYMid meet">
<metadata>
Created by potrace 1.15, written by Peter Selinger 2001-2017
</metadata>
<g transform="translate(0.000000,681.000000) scale(0.100000,-0.100000)"
fill="#ffffff" stroke="none">
<path d="M7196 6522 c-21 -41 -51 -64 -87 -65 -27 -2 -34 2 -38 22 -7 28 -17
19 -50 -46 -18 -36 -34 -49 -110 -88 -99 -51 -161 -109 -161 -151 0 -36 -13
-56 -92 -148 -88 -101 -148 -189 -148 -215 0 -30 184 -235 218 -242 15 -4 82
-7 149 -8 67 0 134 -6 150 -12 81 -30 143 -99 143 -159 0 -36 -43 -119 -63
-121 -7 -1 -73 0 -147 1 -94 1 -158 -3 -210 -15 -41 -9 -110 -22 -154 -30
-129 -24 -179 -68 -192 -172 -17 -137 17 -254 88 -301 35 -22 53 -27 133 -30
90 -4 95 -3 120 22 24 24 26 33 24 89 -3 58 -1 63 24 77 40 23 116 1 295 -84
236 -111 344 -143 522 -153 187 -10 302 21 446 119 l52 35 42 -54 c72 -90 289
-294 402 -378 345 -257 711 -362 1031 -296 255 52 434 12 586 -133 86 -82 135
-159 156 -248 23 -93 72 -238 119 -353 165 -399 469 -750 820 -946 l96 -54 0
-110 c1 -331 63 -574 160 -627 46 -24 106 -23 160 4 l45 23 7 70 c7 82 27 141
68 205 l30 46 -49 204 c-27 113 -59 246 -71 296 l-21 92 -59 36 c-136 84 -234
187 -288 303 -26 56 -27 65 -33 303 -12 451 -90 800 -224 1004 l-43 66 46 42
c129 115 313 311 368 393 118 173 193 351 238 560 21 101 30 126 69 185 108
162 376 440 582 604 118 93 167 153 190 229 20 68 4 113 -50 141 -35 18 -56
21 -166 20 -154 -1 -159 -4 -288 -140 -215 -228 -379 -539 -471 -897 -42 -165
-85 -276 -151 -390 -161 -276 -366 -434 -608 -467 -91 -12 -112 -11 -331 26
-183 31 -299 62 -431 114 -211 84 -347 170 -574 367 -455 392 -914 732 -1330
985 -77 47 -174 107 -215 133 -174 112 -364 185 -522 200 l-68 7 0 35 c0 28
-8 43 -36 69 -44 42 -78 44 -98 6z"/>
<path d="M374 3349 c-18 -5 -48 -27 -68 -49 l-36 -40 0 -1495 0 -1495 430 0
429 0 3 354 c3 340 4 356 24 382 11 15 33 37 48 48 26 20 43 21 456 26 413 5
430 6 456 26 15 11 37 33 48 48 21 27 21 33 21 1064 l0 1037 -23 33 c-51 71 6
67 -922 69 -484 1 -848 -2 -866 -8z m1005 -377 c14 -10 34 -34 43 -53 17 -31
18 -86 18 -709 0 -623 -1 -678 -18 -710 -54 -108 -216 -108 -273 0 -18 33 -19
72 -19 710 0 638 1 677 19 710 45 84 153 109 230 52z"/>
<path d="M2582 3340 c-18 -11 -41 -34 -52 -52 -20 -33 -20 -54 -20 -1474 l0
-1441 23 -33 c12 -18 35 -43 50 -54 28 -21 31 -21 905 -21 l877 0 35 22 c19
12 44 37 55 55 20 33 20 51 20 1474 l0 1441 -28 36 c-51 68 -47 67 -442 67
l-355 0 0 -1282 c0 -1263 0 -1284 -20 -1316 -60 -98 -201 -94 -252 8 -17 33
-18 116 -18 1313 l0 1277 -372 0 c-355 0 -375 -1 -406 -20z"/>
<path d="M4820 3338 c-18 -13 -43 -36 -54 -51 l-21 -28 -3 -1431 -2 -1431 21
-43 c12 -26 36 -53 57 -66 36 -23 42 -23 339 -23 289 0 303 1 329 21 15 11 37
33 48 48 21 27 21 35 26 1259 5 1209 5 1233 25 1266 31 53 69 76 125 76 52 0
87 -19 124 -69 21 -27 21 -35 26 -1265 l5 -1238 27 -35 c49 -65 78 -70 384
-66 l271 3 36 28 c20 15 42 38 49 50 10 17 14 288 18 1259 5 1235 5 1237 26
1265 32 43 82 73 124 73 42 0 92 -30 124 -73 21 -28 21 -30 26 -1267 5 -1231
5 -1239 26 -1266 11 -15 33 -37 48 -48 26 -20 43 -21 311 -24 268 -3 286 -2
324 17 21 11 48 36 60 54 l21 34 0 1437 c0 1410 0 1438 -20 1475 -11 22 -35
48 -53 60 l-34 21 -1390 0 -1390 0 -33 -22z"/>
<path d="M8127 3346 c-51 -19 -73 -40 -92 -90 -14 -37 -15 -195 -13 -1463 3
-1418 3 -1422 24 -1449 11 -15 33 -37 48 -48 26 -20 40 -21 331 -21 291 0 305
1 331 21 15 11 37 33 48 48 20 26 21 44 26 351 5 309 6 325 26 352 72 97 205
98 264 1 19 -31 20 -51 20 -349 0 -311 0 -317 23 -349 12 -18 35 -43 50 -54
27 -20 42 -21 332 -24 291 -3 306 -2 345 18 22 11 50 35 60 53 20 31 20 56 18
1479 l-3 1447 -35 36 c-19 19 -50 40 -70 45 -22 6 -350 10 -865 10 -674 -1
-837 -3 -868 -14z m919 -415 c23 -10 52 -34 65 -52 l24 -34 3 -663 c2 -655 2
-664 -18 -697 -22 -36 -91 -75 -131 -75 -49 0 -112 42 -136 90 l-23 44 0 644
c0 693 -2 669 53 720 46 43 102 51 163 23z"/>
</g>
</svg>
