<?xml version="1.0" standalone="no"?>
<!DOCTYPE svg PUBLIC "-//W3C//DTD SVG 20010904//EN"
 "http://www.w3.org/TR/2001/REC-SVG-20010904/DTD/svg10.dtd">
<svg version="1.0" xmlns="http://www.w3.org/2000/svg"
 width="300.000000pt" height="168.000000pt" viewBox="0 0 300.000000 168.000000"
 preserveAspectRatio="xMidYMid meet">
<metadata>
Created by potrace 1.15, written by Peter Selinger 2001-2017
</metadata>
<g transform="translate(0.000000,168.000000) scale(0.100000,-0.100000)"
fill="#000000" stroke="none">
<path d="M1502 1374 l3 -307 55 0 55 0 5 39 5 38 13 -27 c14 -32 81 -67 127
-67 142 0 231 189 180 384 -26 101 -77 146 -165 146 -50 0 -89 -19 -124 -60
l-26 -32 0 96 0 96 -65 0 -65 0 2 -306z m297 48 c55 -55 48 -187 -12 -238 -26
-21 -38 -25 -70 -21 -53 7 -75 31 -87 95 -14 77 7 157 47 181 36 21 93 13 122
-17z"/>
<path d="M2532 1373 l3 -307 60 1 60 1 5 107 5 106 75 -106 75 -107 83 -2 c45
0 82 1 82 4 0 3 -43 58 -95 124 -54 67 -92 123 -88 130 4 6 47 61 95 122 48
62 88 115 88 118 0 3 -36 6 -79 6 l-80 0 -80 -117 -81 -117 0 172 0 172 -65 0
-65 0 2 -307z"/>
<path d="M42 1364 l3 -297 60 0 60 0 5 117 5 116 85 -116 85 -116 83 -2 c45 0
82 0 82 2 0 2 -45 58 -99 126 l-100 124 41 5 c77 10 126 65 135 149 8 78 -21
139 -81 167 -37 19 -61 21 -204 21 l-162 0 2 -296z m303 142 c18 -27 12 -68
-11 -87 -8 -7 -48 -14 -89 -17 l-75 -5 0 67 0 66 80 0 c73 0 81 -2 95 -24z"/>
<path d="M675 1568 c-50 -18 -84 -47 -112 -95 -22 -39 -28 -62 -31 -134 -5
-104 13 -170 60 -218 44 -45 78 -60 146 -67 47 -5 68 -2 108 15 80 36 94 55
94 125 l0 61 -30 -36 c-39 -48 -77 -63 -146 -57 -62 5 -89 25 -103 76 l-10 32
154 0 154 0 7 35 c9 47 -11 149 -36 190 -32 52 -81 77 -158 81 -37 2 -80 -1
-97 -8z"/>
<path d="M1140 1564 c-46 -20 -87 -60 -112 -108 -29 -56 -35 -167 -13 -241 46
-161 237 -217 365 -108 38 32 40 38 40 89 0 30 -2 54 -5 54 -2 0 -22 -19 -43
-42 -35 -37 -45 -42 -95 -46 -69 -5 -113 11 -132 49 -31 59 -30 59 140 59
l155 0 0 63 c0 118 -38 193 -114 228 -50 23 -137 24 -186 3z"/>
<path d="M2136 1566 c-83 -31 -118 -77 -137 -180 -21 -114 19 -245 90 -293 75
-51 193 -55 273 -11 83 46 129 171 109 297 -22 135 -85 192 -220 198 -50 2
-90 -2 -115 -11z m163 -130 c36 -19 51 -55 51 -122 0 -76 -21 -121 -64 -139
-45 -19 -70 -19 -107 1 -39 20 -59 68 -59 141 1 65 16 99 51 119 32 18 93 17
128 0z"/>
<path d="M2790 874 c-249 -20 -537 -52 -810 -90 -250 -35 -470 -70 -476 -77
-5 -4 312 -217 322 -217 4 0 79 29 168 64 89 36 235 90 326 121 168 57 639
195 665 195 8 0 15 5 15 10 0 11 7 12 -210 -6z"/>
<path d="M505 849 c-203 -15 -400 -28 -437 -28 -78 -1 -90 -17 -20 -26 527
-71 1345 -330 2310 -732 73 -30 135 -53 138 -50 2 2 -338 198 -756 436 -747
424 -761 431 -812 430 -29 -1 -219 -14 -423 -30z"/>
<path d="M770 491 c-186 -64 -357 -151 -499 -256 -69 -51 -241 -212 -241 -226
0 -5 115 -9 255 -9 l254 0 98 98 c109 110 221 188 388 272 131 66 119 59 113
65 -4 4 -283 87 -283 85 0 0 -38 -13 -85 -29z"/>
<path d="M1173 354 c-156 -82 -322 -212 -403 -315 l-32 -39 239 0 238 0 23 40
c31 54 135 164 202 214 31 23 57 45 58 50 3 8 -218 86 -245 86 -6 0 -42 -16
-80 -36z"/>
</g>
</svg>
