<?xml version="1.0" standalone="no"?>
<!DOCTYPE svg PUBLIC "-//W3C//DTD SVG 20010904//EN"
 "http://www.w3.org/TR/2001/REC-SVG-20010904/DTD/svg10.dtd">
<svg version="1.0" xmlns="http://www.w3.org/2000/svg"
 width="1280.000000pt" height="518.000000pt" viewBox="0 0 1280.000000 518.000000"
 preserveAspectRatio="xMidYMid meet">
<metadata>
Created by potrace 1.15, written by Peter Selinger 2001-2017
</metadata>
<g transform="translate(0.000000,518.000000) scale(0.100000,-0.100000)"
fill="#ffffff" stroke="none">
<path d="M390 5004 c-14 -2 -84 -8 -156 -15 -72 -6 -137 -15 -144 -19 -11 -7
-1 -59 44 -252 101 -423 317 -1281 571 -2268 135 -525 300 -1172 366 -1437
113 -456 123 -488 179 -606 l59 -125 123 -6 c68 -3 362 -9 653 -14 l530 -8 68
29 c66 29 68 31 82 81 8 28 224 847 480 1821 461 1749 467 1771 511 1841 79
128 -1 113 624 120 300 4 2210 1 4245 -6 l3701 -12 40 20 c25 13 48 36 64 63
24 42 25 55 32 259 4 118 10 249 13 290 6 66 3 81 -17 120 -26 50 -71 84 -132
101 -40 11 -185 8 -399 -7 -51 -4 -124 -2 -170 4 -59 8 -1287 13 -4418 16
l-4336 5 -46 -42 -47 -42 -412 -1618 -412 -1618 -47 -52 c-43 -47 -49 -51 -63
-36 -30 28 -161 565 -331 1354 -222 1030 -320 1429 -476 1943 -12 40 -30 77
-38 82 -42 22 -270 40 -489 39 -125 -1 -238 -3 -252 -5z"/>
<path d="M12519 3967 c-105 -69 -98 -231 12 -288 55 -27 131 -23 179 11 36 26
69 90 70 135 0 45 -40 116 -79 142 -47 32 -135 32 -182 0z m174 -50 c63 -59
56 -154 -15 -197 -67 -40 -155 -13 -184 57 -22 51 -10 100 33 140 29 28 42 33
83 33 41 0 54 -5 83 -33z"/>
<path d="M12530 3825 l0 -95 30 0 c27 0 30 3 30 34 0 29 3 33 19 29 12 -3 21
-15 23 -32 2 -20 9 -27 32 -29 28 -3 28 -3 22 35 -8 50 -8 53 0 86 11 47 -17
67 -93 67 l-63 0 0 -95z"/>
<path d="M11120 3724 c-320 -22 -621 -110 -853 -250 -166 -101 -298 -283 -363
-500 -32 -108 -44 -322 -25 -444 31 -200 123 -381 271 -530 141 -143 232 -197
460 -273 151 -51 200 -60 450 -82 367 -34 497 -78 577 -198 40 -60 55 -112 55
-198 1 -58 -3 -72 -30 -112 -148 -215 -470 -265 -827 -130 -38 14 -153 64
-255 111 -102 46 -225 97 -273 114 l-88 29 -46 -51 c-131 -146 -260 -332 -328
-475 -69 -143 -71 -132 31 -208 115 -86 250 -155 529 -270 327 -135 503 -171
825 -171 451 1 831 144 1124 424 146 139 244 338 276 558 19 130 8 355 -23
474 -75 287 -214 454 -479 578 -117 54 -199 80 -510 161 -310 80 -415 113
-543 174 -112 54 -179 104 -194 146 -28 80 -5 173 64 261 95 122 296 175 501
132 121 -24 235 -69 452 -175 120 -59 210 -98 221 -94 25 8 190 171 244 242
81 107 137 247 137 348 0 15 -24 37 -82 75 -246 163 -571 279 -893 319 -93 12
-326 20 -405 15z"/>
<path d="M4539 3570 c-136 -10 -320 -36 -330 -48 -6 -7 -212 -677 -353 -1147
-245 -819 -574 -2010 -562 -2040 2 -7 44 -20 93 -30 152 -30 730 -31 760 -1 3
3 37 112 75 243 74 256 81 271 163 318 117 68 224 80 570 65 290 -14 317 -19
382 -74 47 -40 87 -132 126 -293 19 -78 46 -166 60 -196 l25 -55 158 -8 c88
-5 251 -9 364 -9 167 0 218 3 278 19 42 10 72 23 72 31 0 7 -133 550 -295
1206 -288 1167 -298 1203 -423 1584 l-128 390 -41 7 c-187 32 -766 54 -994 38z
m385 -1298 c57 -140 107 -318 120 -419 l7 -52 -68 -21 c-95 -30 -230 -38 -285
-16 -73 28 -80 37 -69 88 6 25 24 121 41 215 33 192 67 310 113 396 l31 59 27
-54 c14 -29 52 -117 83 -196z"/>
<path d="M7043 3549 c-62 -6 -159 -18 -215 -27 -95 -16 -102 -19 -109 -43 -9
-34 -27 -353 -39 -674 -5 -143 -10 -727 -10 -1299 l0 -1038 25 -82 26 -81 342
0 c295 0 349 3 392 17 91 31 82 -39 96 707 l12 664 31 28 c17 16 36 29 41 29
12 0 152 -220 245 -385 34 -60 130 -240 213 -400 159 -307 245 -468 308 -576
l38 -66 173 -6 c95 -4 254 -12 353 -17 188 -11 386 -2 495 23 l55 12 9 130 c5
72 9 784 10 1583 1 1187 -1 1454 -12 1461 -35 22 -304 46 -507 46 -209 0 -258
-6 -357 -44 l-28 -11 0 -192 c0 -106 -7 -290 -15 -408 -9 -118 -18 -326 -22
-462 -3 -137 -9 -248 -12 -248 -3 0 -23 -4 -43 -9 l-36 -9 -366 658 c-344 617
-369 659 -413 691 l-48 34 -260 2 c-143 0 -311 -3 -372 -8z"/>
</g>
</svg>
